<?xml version="1.0" encoding="utf-8"?>
<!-- Generator: Adobe Illustrator 26.1.0, SVG Export Plug-In . SVG Version: 6.00 Build 0)  -->
<svg version="1.1" id="Layer_1" xmlns="http://www.w3.org/2000/svg" xmlns:xlink="http://www.w3.org/1999/xlink" x="0px" y="0px"
	 viewBox="0 0 512 512" style="enable-background:new 0 0 512 512;" xml:space="preserve">
<style type="text/css">
	.st0{filter:url(#Adobe_OpacityMaskFilter);}
	.st1{mask:url(#SVGID_1_);}
	.st2{fill:#FF2B3D;}
	.st3{fill:#BABABF;}
	.st4{fill:#7AB742;}
	.st5{fill:#B51E00;}
	.st6{fill:#FFFFFF;}
</style>
<defs>
	<filter id="Adobe_OpacityMaskFilter" filterUnits="userSpaceOnUse" x="-86.65" y="-86.65" width="685.29" height="685.29">
		
			<feColorMatrix  type="matrix" values="-1 0 0 0 1  0 -1 0 0 1  0 0 -1 0 1  0 0 0 1 0" color-interpolation-filters="sRGB" result="source"/>
	</filter>
</defs>
<mask maskUnits="userSpaceOnUse" x="-86.65" y="-86.65" width="685.29" height="685.29" id="SVGID_1_">
	<g class="st0">
		<path d="M461.71,512H50.29C22.51,512,0,489.49,0,461.71V50.29C0,22.51,22.51,0,50.29,0h411.43C489.49,0,512,22.51,512,50.29
			v411.43C512,489.49,489.49,512,461.71,512z"/>
	</g>
</mask>
<g class="st1">
	
		<rect x="-29.6" y="274.19" transform="matrix(0.9919 -0.1269 0.1269 0.9919 -53.2115 19.1232)" class="st2" width="306.27" height="306.27"/>
	
		<rect x="274.19" y="235.34" transform="matrix(0.9919 -0.1269 0.1269 0.9919 -45.8283 57.348)" class="st3" width="306.27" height="306.27"/>
	
		<rect x="-68.46" y="-29.6" transform="matrix(0.9919 -0.1269 0.1269 0.9919 -14.9866 11.74)" class="st4" width="306.27" height="306.27"/>
	
		<rect x="235.34" y="-68.46" transform="matrix(0.9919 -0.1269 0.1269 0.9919 -7.6035 49.9648)" class="st5" width="306.27" height="306.27"/>
</g>
<g>
	<path class="st6" d="M356.28,401.42l-15.6-2.03l4.03-30.99c1.61-12.39-4.84-23.95-15.22-29.58c-1.62-16.72,11.05-43.8,16.6-53.64
		c11.87-23.34,20.46-46.97,25.47-70.18c22.35-103.17-56.09-146.96-72.21-154.75c-7.54-16.3-18.04-29.04-22.35-33.92
		c-2.2-2.48-5.66-3.5-8.86-2.51c-2.76,0.84-5.59,4.17-5.96,7.05l-3.76,24.58c0,0-4.57,15.54-20.87,15.75
		c-13.64,0.5-27.87,9.28-35.78,15.97c-10.63,9.02-22.3,18.14-37.82,29.56l-21.67,15.9c-12,8.82-18.6,23.16-17.22,37.44
		c1.24,13.23,8.62,22.9,21.31,27.96c25.94,10.29,47.67-3.68,55.89-10.24c7.38,2.43,14.97,5.59,22.62,9.45
		c5.01,2.52,11.1,5.07,17.5,6.57l-29.48,26.86c-6.37,5.32-57.71,49.5-54.35,85.88c-11.58,2.72-20.86,12.28-22.48,24.75l-4.03,30.99
		l-12.28-1.6c-10.71-1.39-20.57,6.2-21.96,16.91l-6.25,48.1c-1.39,10.71,6.2,20.57,16.91,21.96l236.53,30.73
		c10.71,1.39,20.57-6.2,21.96-16.91l6.25-48.1C374.58,412.68,366.99,402.81,356.28,401.42z"/>
	<g>
		<path d="M347.51,493.56c-1.06,0-2.13-0.07-3.18-0.21l-236.53-30.73c-13.45-1.75-22.98-14.11-21.23-27.57l6.25-48.1
			c1.59-12.22,12.07-21.43,24.39-21.43c1.06,0,2.13,0.07,3.18,0.21l7.32,0.95l3.38-26.03c1.65-12.67,10.39-23.38,22.28-27.77
			c0.14-37.11,46.39-77.78,56.22-85.99l22.91-20.88c-3.23-1.19-6.53-2.64-9.89-4.33c-6.52-3.29-13.06-6.09-19.45-8.33
			c-7.62,5.61-21.15,13.31-37.99,13.31c-6.99,0-13.94-1.35-20.66-4.01c-14.36-5.73-23.04-17.14-24.44-32.14
			c-1.54-16,5.83-32.07,19.24-41.94l21.67-15.9c15.47-11.38,27.05-20.43,37.54-29.34c12.31-10.4,24.93-16.01,38.6-17.14l0.17-0.01
			l0.18,0c11.39-0.15,15.4-10.07,16.05-11.91l3.69-24.12c0.66-4.83,4.8-9.71,9.46-11.12c1.26-0.39,2.59-0.59,3.92-0.59
			c3.87,0,7.56,1.67,10.13,4.57c4.22,4.79,14.63,17.41,22.38,33.53c19.61,9.9,95.81,55.7,73.32,159.52
			c-5.09,23.59-13.81,47.61-25.9,71.39l-0.1,0.19c-6.5,11.54-16.16,34.08-16.09,48.27c10.92,7.17,17.01,20.14,15.32,33.14
			l-3.38,26.03l10.64,1.38c13.45,1.75,22.97,14.11,21.23,27.56l-6.25,48.11C370.31,484.35,359.83,493.56,347.51,493.56
			C347.51,493.56,347.51,493.56,347.51,493.56z M347.36,468.79l6.21-47.79l-236.21-30.69l-6.21,47.79L347.36,468.79z M321.72,391.89
			l3.38-26.03c0.33-2.55-0.35-5.08-1.92-7.12c-1.57-2.04-3.84-3.34-6.39-3.68l-150.37-19.53c-0.42-0.05-0.84-0.08-1.25-0.08
			c-4.81,0-8.9,3.61-9.52,8.4l-3.38,26.03L321.72,391.89z M309.82,329.2c2.4-23.02,15.84-48.01,18.84-53.34
			c10.98-21.59,18.92-43.47,23.58-65.02c21.25-98.13-59.72-132.19-63.17-133.59c-3.02-1.22-5.4-3.54-6.7-6.54
			c-1.38-3.19-2.98-6.4-4.79-9.63c-8,23.69-23.64,26.65-30.46,27.95c-0.71,0.14-1.35,0.25-1.89,0.39l-0.34,0.08l-0.34,0.04
			c-13.82,1.42-17.81,3.54-30.14,12.8c-11.06,9.36-23.03,18.71-38.78,30.29l-21.67,15.9c-6.41,4.72-9.97,12.25-9.27,19.66
			c0.54,5.76,3.22,9.19,8.96,11.48c3.75,1.51,7.64,2.27,11.55,2.27c14.88,0,26.23-10.81,26.7-11.27c2.33-2.25,5.48-3.55,8.64-3.55
			c1.29,0,2.55,0.21,3.76,0.62c10.22,3.13,19.86,7.01,29.46,11.87c7.59,3.81,14.31,5.83,19.43,5.83c1.58,0,2.96-0.2,4.1-0.59
			c1.27-0.43,2.6-0.66,3.96-0.66c4.35,0,8.44,2.33,10.66,6.07c2.96,5.04,1.99,11.53-2.3,15.45l-43.73,39.84l-0.08,0.07
			c-15.92,13.31-46.91,45.79-47.76,66.45L309.82,329.2z"/>
		<path class="st6" d="M270.6,23.44c2.41,0,4.75,1.03,6.39,2.88c4.3,4.88,14.81,17.62,22.35,33.92
			c16.12,7.79,94.56,51.58,72.21,154.75c-5.01,23.22-13.6,46.84-25.47,70.18c-5.55,9.85-18.21,36.92-16.6,53.64
			c10.39,5.63,16.83,17.19,15.22,29.58l-4.03,30.99l15.6,2.03c10.71,1.39,18.3,11.25,16.92,21.96l-6.25,48.1
			c-1.28,9.86-9.74,17.08-19.43,17.08c-0.84,0-1.68-0.05-2.53-0.16l-236.53-30.73c-10.71-1.39-18.3-11.25-16.91-21.96l6.25-48.1
			c1.28-9.86,9.74-17.08,19.43-17.08c0.84,0,1.68,0.05,2.53,0.16l12.28,1.6l4.03-30.99c1.62-12.47,10.91-22.03,22.48-24.75
			c-3.37-36.39,47.98-80.57,54.35-85.88l29.48-26.86c-6.39-1.5-12.49-4.05-17.5-6.57c-7.65-3.86-15.24-7.03-22.62-9.45
			c-6.13,4.89-19.77,13.9-37.07,13.9c-5.9,0-12.22-1.05-18.82-3.66c-12.68-5.06-20.07-14.73-21.31-27.96
			c-1.38-14.28,5.22-28.62,17.22-37.44l21.67-15.9c15.51-11.42,27.19-20.54,37.82-29.56c7.91-6.69,19.74-14.64,35.78-15.97
			c16.3-0.21,20.87-15.75,20.87-15.75l3.76-24.58c0.37-2.87,3.2-6.21,5.96-7.05C268.94,23.56,269.77,23.44,270.6,23.44
			 M165.2,186.93c16.94,0,29.53-12.05,30.18-12.68c1.39-1.35,3.26-2.14,5.16-2.14c0.74,0,1.48,0.12,2.2,0.38
			c10.23,3.13,19.49,6.89,28.75,11.58c8.32,4.18,15.78,6.37,21.69,6.37c2.11,0,4.03-0.28,5.71-0.85c0.77-0.26,1.56-0.39,2.35-0.39
			c2.54,0,5,1.33,6.36,3.63c1.77,3.01,1.2,6.85-1.38,9.21l-43.65,39.76c-14.82,12.38-53.08,50.69-49.3,74.71l141.18,18.34
			c0.49-23.79,16.53-52.94,18.61-56.63c11.16-21.93,19.3-44.34,24.06-66.32c22.14-102.24-62.56-137.82-66.18-139.28
			c-1.79-0.72-3.23-2.13-3.99-3.9c-3.53-8.17-8.03-15.49-12.07-21.24l-1.22,9.39c-7.6,26.04-23.7,26.24-29.63,27.69
			c-15.13,1.55-20.08,4.35-32.75,13.86c-10.91,9.24-22.81,18.54-38.63,30.18L151,144.49c-7.83,5.75-12.15,15.01-11.29,24.16
			c0.73,7.68,4.58,12.66,12.09,15.65C156.46,186.18,160.97,186.93,165.2,186.93 M326.04,397.49l4.03-30.99
			c1.04-8.01-4.61-15.36-12.63-16.4l-150.37-19.53c-0.64-0.08-1.27-0.12-1.9-0.12c-7.23,0-13.53,5.38-14.48,12.75l-4.03,30.99
			L326.04,397.49 M347.51,473.81c2.4,0,4.47-1.77,4.79-4.22l0,0l6.25-48.1c0.35-2.66-1.52-5.08-4.18-5.42l-22.92-2.98l-194.01-25.2
			l-19.6-2.55c-0.21-0.03-0.43-0.04-0.63-0.04c-2.4,0-4.47,1.77-4.79,4.22l-6.25,48.1c-0.35,2.66,1.52,5.08,4.18,5.42l236.53,30.73
			C347.09,473.79,347.3,473.81,347.51,473.81 M270.6,13.44c-1.83,0-3.65,0.27-5.41,0.81c-6.44,1.96-11.98,8.47-12.92,15.18
			l-3.61,23.6c-0.84,2.17-3.79,8.06-11.25,8.16l-0.35,0l-0.35,0.03c-14.74,1.22-28.29,7.21-41.41,18.3
			c-10.42,8.84-21.91,17.82-37.29,29.14l-21.66,15.89c-14.83,10.9-22.97,28.7-21.26,46.46c1.59,16.94,11.37,29.84,27.56,36.29
			c7.33,2.91,14.9,4.37,22.52,4.37c16.7,0,30.3-6.93,38.76-12.72c5.42,2.01,10.93,4.42,16.43,7.2c1,0.5,2,0.99,2.99,1.45
			l-17.04,15.53c-3.31,2.77-18.32,15.67-32,32.52c-16.03,19.72-24.68,37.8-25.8,53.87c-11.99,5.65-20.63,17.11-22.37,30.49
			l-2.74,21.07l-2.36-0.31c-1.27-0.16-2.55-0.25-3.82-0.25c-14.82,0-27.44,11.09-29.35,25.79l-6.25,48.1
			c-1.02,7.83,1.08,15.59,5.91,21.87c4.83,6.27,11.8,10.29,19.63,11.3l236.53,30.73c1.27,0.16,2.55,0.25,3.82,0.25
			c14.82,0,27.44-11.09,29.35-25.79l6.25-48.1c2.1-16.19-9.36-31.06-25.54-33.16l-5.68-0.74l2.74-21.07
			c1.05-8.05-0.4-16.1-4.18-23.28c-2.7-5.13-6.46-9.56-11.01-13.04c0.94-12.69,9.08-32.15,15.36-43.29l0.11-0.19l0.1-0.19
			c12.29-24.16,21.15-48.59,26.33-72.61c5.46-25.22,5.59-49.12,0.37-71.04c-4.34-18.21-12.36-35.12-23.85-50.26
			c-17.98-23.69-39.8-37.15-50.96-42.97c-7.93-15.95-18.17-28.35-22.39-33.14C280.95,15.72,275.89,13.44,270.6,13.44L270.6,13.44z
			 M217.53,106.24c11.5-8.63,14.93-10.45,27.53-11.74l0.69-0.07l0.67-0.16c0.36-0.09,0.98-0.2,1.63-0.33
			c6.57-1.24,20.38-3.86,29.83-21.02c1.85,4.11,5.16,7.28,9.33,8.96c3.28,1.33,80.52,33.83,60.15,127.89
			c-4.57,21.1-12.34,42.54-23.11,63.72c-2.97,5.29-15.01,27.76-18.71,50.1l-121.78-15.82c1.84-7.14,7.06-16.5,15.1-26.88
			c10.86-14.02,24.05-26.36,30.13-31.44l0.16-0.14l0.16-0.14l43.65-39.76c6.04-5.52,7.41-14.63,3.26-21.67
			c-3.14-5.29-8.87-8.56-14.98-8.56c-1.91,0-3.79,0.31-5.59,0.93c-0.41,0.14-1.19,0.31-2.47,0.31c-2.48,0-8.01-0.69-17.19-5.31
			c-9.81-4.96-19.68-8.94-30.15-12.15c-1.7-0.57-3.48-0.87-5.3-0.87c-4.45,0-8.87,1.81-12.12,4.96c-0.1,0.09-10.34,9.86-23.22,9.86
			c-3.27,0-6.53-0.64-9.67-1.9c-4.54-1.81-5.53-3.88-5.86-7.32c-0.53-5.67,2.25-11.48,7.26-15.16l21.66-15.89
			C194.39,125.03,206.41,115.64,217.53,106.24L217.53,106.24z M157.87,365.56l2.74-21.07c0.3-2.3,2.26-4.04,4.57-4.04
			c0.2,0,0.4,0.01,0.61,0.04l150.37,19.53c1.66,0.22,2.64,1.2,3.07,1.77s1.14,1.77,0.92,3.42l-2.74,21.07L157.87,365.56
			L157.87,365.56z M116.76,433.79l4.92-37.87l14.48,1.88L330.17,423l17.8,2.31l-4.27,32.84l0,0l-0.65,5.04L116.76,433.79
			L116.76,433.79z"/>
	</g>
</g>
</svg>
